<mxfile host="app.diagrams.net" modified="2023-12-03T20:27:51.814Z" agent="Mozilla/5.0 (Windows NT 10.0; Win64; x64) AppleWebKit/537.36 (KHTML, like Gecko) Chrome/119.0.0.0 Safari/537.36" version="22.1.5" etag="Cr2aqh5NewuVebiusXMU" type="github">
  <diagram name="Sayfa -1" id="m6d4WZPNSyA0g7AP167L">
    <mxGraphModel>
      <root>
        <mxCell id="0" />
        <mxCell id="1" parent="0" />
      </root>
    </mxGraphModel>
  </diagram>
</mxfile>
